<mxfile host="app.diagrams.net" modified="2024-04-01T12:51:44.255Z" agent="Mozilla/5.0 (Macintosh; Intel Mac OS X 10_15_7) AppleWebKit/537.36 (KHTML, like Gecko) Chrome/123.0.0.0 Safari/537.36" version="24.0.7" etag="El2PJEvhV-37bOwCJ1Oa" type="github">
  <diagram name="Page-1" id="uwBnJbCQN6YH3pG2Tjue">
    <mxGraphModel>
      <root>
        <mxCell id="0" />
        <mxCell id="1" parent="0" />
      </root>
    </mxGraphModel>
  </diagram>
</mxfile>
